<?xml version="1.0" encoding="UTF-8"?>
<svg version="1.1" xmlns="http://www.w3.org/2000/svg" width="1000" height="1000">
<path d="M0 0 C3.98309533 1.32769844 4.93775776 3.75462349 6.921875 7.21875 C7.29834167 7.85925293 7.67480835 8.49975586 8.06268311 9.15966797 C9.29992486 11.26846613 10.52476737 13.38420586 11.75 15.5 C12.61163854 16.9725859 13.47427843 18.44458633 14.33789062 19.91601562 C16.08062742 22.88619008 17.81979623 25.85840781 19.55664062 28.83203125 C22.82390574 34.41654621 26.15839154 39.95967399 29.5 45.5 C33.53892041 52.21307393 37.5611583 58.93562207 41.5546875 65.67578125 C41.94731781 66.33844498 42.33994812 67.0011087 42.74447632 67.68385315 C43.54893803 69.04177184 44.35337096 70.39970758 45.15777588 71.75765991 C45.55945984 72.43575714 45.9611438 73.11385437 46.375 73.8125 C46.77652283 74.49035553 47.17804565 75.16821106 47.59173584 75.86660767 C53.55154629 85.9235822 59.58720597 95.93113971 65.6762085 105.91030884 C71.41346917 115.31936965 77.01308713 124.80305224 82.56304932 134.32357788 C87.78285273 143.27359009 93.09983604 152.15772785 98.5 161 C104.26707995 170.44306335 109.92769052 179.9407175 115.5 189.5 C121.15695113 199.20394481 126.90182888 208.84753939 132.75 218.4375 C139.31548954 229.20562738 145.77596686 240.03033782 152.17285156 250.89941406 C155.85477615 257.14746888 159.55056711 263.38729901 163.25 269.625 C163.65488647 270.30781036 164.05977295 270.99062073 164.47692871 271.69412231 C170.47670631 281.8070159 176.55118355 291.87173472 182.67565918 301.90948486 C188.41311313 311.31881595 194.01292015 320.8027658 199.56304932 330.32357788 C204.78285273 339.27359009 210.09983604 348.15772785 215.5 357 C221.26707995 366.44306335 226.92769052 375.9407175 232.5 385.5 C238.15695113 395.20394481 243.90182888 404.84753939 249.75 414.4375 C256.30831058 425.19385309 262.76139809 436.00683167 269.15087891 446.86425781 C272.94147957 453.29236382 276.75257149 459.70833693 280.5625 466.125 C280.97610779 466.821698 281.38971558 467.518396 281.81585693 468.23620605 C286.97933864 476.93246318 292.15907225 485.61846568 297.37451172 494.28369141 C300.38600508 499.29322453 303.37650329 504.31483363 306.35546875 509.34375 C306.74450378 510.0004216 307.13353882 510.6570932 307.53436279 511.33366394 C308.12861053 512.33675346 308.12861053 512.33675346 308.73486328 513.36010742 C309.5523891 514.74008332 310.36993485 516.12004741 311.1875 517.5 C311.59434021 518.18671783 312.00118042 518.87343567 312.42034912 519.58096313 C318.43734082 529.73250002 324.52876752 539.83547693 330.67538452 549.90893555 C336.41291728 559.31845592 342.0128182 568.8025909 347.56304932 578.32357788 C352.78285273 587.27359009 358.09983604 596.15772785 363.5 605 C369.26707995 614.44306335 374.92769052 623.9407175 380.5 633.5 C386.15695113 643.20394481 391.90182888 652.84753939 397.75 662.4375 C404.31548954 673.20562738 410.77596686 684.03033782 417.17285156 694.89941406 C420.85477769 701.1474715 424.55128833 707.38686883 428.25 713.625 C428.64956909 714.29950195 429.04913818 714.97400391 429.46081543 715.66894531 C433.91499268 723.18528517 438.39876071 730.68144641 442.9609375 738.1328125 C443.35700195 738.78057648 443.75306641 739.42834045 444.16113281 740.09573364 C446.04456684 743.17461533 447.93375433 746.24969923 449.83300781 749.31884766 C450.49913086 750.40472168 451.16525391 751.4905957 451.8515625 752.609375 C452.43760254 753.55780273 453.02364258 754.50623047 453.62744141 755.48339844 C454.85907288 757.74160854 455.44319695 759.52295869 456 762 C448.13693212 763.08152852 440.37866118 763.12848355 432.45263672 763.09765625 C430.99330191 763.09573267 429.53396644 763.09427095 428.07463074 763.0932312 C424.93192186 763.09007672 421.7892401 763.08381342 418.6465416 763.07516479 C413.58338395 763.06141505 408.5202348 763.05569436 403.45706177 763.05102539 C390.81582286 763.03811912 378.17460699 763.01422045 365.53338623 762.98962402 C353.22799084 762.96586141 340.9226022 762.94747675 328.6171875 762.9375 C327.73988826 762.9367107 326.86258902 762.9359214 325.95870495 762.93510818 C296.38445209 762.91050281 266.81860678 763.14008695 237.24801868 763.6085605 C217.579107 763.91996053 197.91769543 764.0351451 178.24626637 764.01316166 C162.53351437 763.99577113 146.82131229 764.02256632 131.10864258 764.07592773 C129.89723736 764.07998631 128.68583214 764.08404488 127.43771768 764.08822644 C119.76721434 764.11411667 112.09671635 764.14137238 104.42621946 764.16909862 C100.31564269 764.18392469 96.20506462 764.19836916 92.09448624 764.21273994 C72.8659789 764.28000999 53.63748077 764.3496386 34.40898657 764.42055893 C30.57282291 764.43470551 26.73665906 764.44879761 22.90049515 764.46287262 C-89.80137062 764.87585115 -89.80137062 764.87585115 -202.50247401 765.45584637 C-208.28292338 765.48985539 -214.06337985 765.52233336 -219.84384155 765.5541687 C-252.32850918 765.73425129 -284.8068066 766.01313834 -317.28590393 766.6697998 C-349.13797752 767.31289222 -349.13797752 767.31289222 -358 766 C-359.66630509 765.96528531 -361.33414654 765.94794208 -363 766 C-362.43381284 761.24220145 -360.26607322 757.61284498 -357.875 753.5625 C-354.91873049 748.44173522 -352.09811157 743.31210136 -349.5 738 C-344.73068402 728.31948908 -339.31234288 719.01861455 -333.93359375 709.66796875 C-333.40596436 708.74894775 -332.87833496 707.82992676 -332.3347168 706.88305664 C-331.30909037 705.09804635 -330.28078159 703.31457347 -329.24926758 701.53295898 C-326.34077481 696.47621992 -323.6287965 691.3666166 -321.08081055 686.1184082 C-319.61791894 683.25111422 -317.79719027 680.66855525 -316 678 C-314.58882766 675.51430754 -313.23546568 673.00029975 -311.87890625 670.484375 C-305.16528531 658.03416734 -298.29846904 645.67412606 -291.23583984 633.41845703 C-288.26822436 628.2602876 -285.38612643 623.06275529 -282.54711914 617.83276367 C-279.8674024 612.92622219 -277.11588024 608.06004705 -274.375 603.1875 C-268.33497519 592.4250558 -262.39131891 581.61357301 -256.50292969 570.76757812 C-253.83975082 565.86345277 -251.17009328 560.96286308 -248.5 556.0625 C-247.76112549 554.70378784 -247.76112549 554.70378784 -247.00732422 553.31762695 C-245.67695908 550.87540742 -244.33938352 548.43728162 -243 546 C-242.42572266 544.93821533 -242.42572266 544.93821533 -241.83984375 543.85498047 C-239.22770519 539.1138526 -239.22770519 539.1138526 -237 538 C-236.29806233 536.34787841 -235.63684035 534.67828978 -235 533 C-234.14939449 531.38276595 -233.27239444 529.77924712 -232.375 528.1875 C-229.35132574 522.72705631 -226.5540804 517.1726794 -223.80419922 511.57104492 C-222.01386332 507.94406358 -220.14303395 504.43681606 -218 501 C-218.76957031 500.88785156 -219.53914062 500.77570313 -220.33203125 500.66015625 C-240.26892796 497.23664873 -259.6098587 490.28262157 -277.08007812 480.11474609 C-278.38683501 479.35601619 -279.70383539 478.61471956 -281.02929688 477.88916016 C-285.89121282 475.21757437 -285.89121282 475.21757437 -287 473 C-287.69351563 472.75765625 -288.38703125 472.5153125 -289.1015625 472.265625 C-293.18493401 470.48258946 -296.0805786 467.70704089 -299.375 464.75 C-300.65349613 463.61962232 -301.93214134 462.48941324 -303.2109375 461.359375 C-304.15114746 460.52128296 -304.15114746 460.52128296 -305.11035156 459.66625977 C-306.9713465 458.02526617 -308.86050325 456.42297047 -310.7578125 454.82421875 C-313.22475409 452.71734359 -315.42488874 450.566397 -317.5 448.0625 C-319.65116872 445.52583423 -321.83378297 443.15890039 -324.25 440.875 C-329.32087987 435.90784268 -333.53338104 430.15223901 -337.83398438 424.52197266 C-338.81834049 423.23711586 -339.82120733 421.96647198 -340.828125 420.69921875 C-342 419 -342 419 -342 417 C-342.66 417 -343.32 417 -344 417 C-343.67 415.68 -343.34 414.36 -343 413 C-285.25 412.67 -227.5 412.34 -168 412 C-164.04 404.41 -160.08 396.82 -156 389 C-153.65906449 384.8833448 -151.31396085 380.80414453 -148.875 376.75 C-144.17912639 368.82316329 -139.70936729 360.82931466 -135.46948242 352.65039062 C-131.49781658 344.99267288 -127.26977381 337.4944867 -123 330 C-113.30137484 312.96284653 -103.78952112 295.83508417 -94.6171875 278.5078125 C-94.26374268 277.84072266 -93.91029785 277.17363281 -93.54614258 276.48632812 C-92.65360499 274.79739624 -91.76597488 273.10587321 -90.87890625 271.4140625 C-89.38815265 268.70529193 -87.8452217 266.06756664 -86.2421875 263.42578125 C-82.86333768 257.83269527 -79.70742409 252.12617953 -76.5675354 246.39630127 C-75.17477212 243.85504643 -73.77739889 241.31633606 -72.3802948 238.77746582 C-71.65664072 237.46238712 -70.93318156 236.14720114 -70.20991516 234.83190918 C-66.59254061 228.25454946 -62.95667312 221.68755556 -59.3125 215.125 C-58.69391113 214.0107666 -58.07532227 212.8965332 -57.43798828 211.74853516 C-53.47566067 204.62303117 -49.46699931 197.52517269 -45.4375 190.4375 C-40.14051091 181.11496231 -35.03560893 171.69672013 -29.97314453 162.24511719 C-17.57647176 139.12008271 -17.57647176 139.12008271 -14.1875 134.5625 C-12.50379543 130.92924277 -13.33000155 128.05893618 -14.1875 124.3125 C-14.49379448 122.77557283 -14.79575268 121.2377762 -15.09375 119.69921875 C-15.2484375 118.91466309 -15.403125 118.13010742 -15.5625 117.32177734 C-20.20158211 92.70254135 -20.2258424 65.08614134 -13 41 C-12.4772939 38.70875977 -11.95659896 36.41706015 -11.4375 34.125 C-8.66200158 22.43687621 -4.19809765 11.23434583 0 0 Z M36 224 C35.44054687 225.093125 34.88109375 226.18625 34.3046875 227.3125 C28.94634869 237.68388271 23.25399228 247.80694841 17.3269043 257.86328125 C12.28390422 266.44548081 7.49753444 275.14977428 2.765625 283.90625 C-0.13854143 289.27713519 -3.12467414 294.59954068 -6.14770508 299.90429688 C-10.18986688 306.10830772 -10.18986688 306.10830772 -12 313 C-12.99 313.495 -12.99 313.495 -14 314 C-18.00041891 319.68480582 -21.05579196 325.98895182 -24.12304688 332.20751953 C-33.16364053 350.51617361 -43.14832759 368.29805571 -53.67871094 385.7878418 C-57.47897289 392.15040158 -60.88526239 398.71956863 -64.1875 405.3515625 C-64.71730469 406.41455566 -65.24710937 407.47754883 -65.79296875 408.57275391 C-66.39044922 409.77424072 -66.39044922 409.77424072 -67 411 C-52.31251044 411.03162301 -37.62501929 411.05132101 -22.9375 411.0625 C-21.82103844 411.06335602 -20.70457687 411.06421204 -19.55428314 411.06509399 C19.25779106 411.09127573 58.06480093 410.87443999 96.875 410.5 C98.73500578 410.48206327 98.73500578 410.48206327 100.63258743 410.46376419 C115.75514348 410.31720564 130.87760971 410.16274561 146 410 C144.75435321 406.15286257 143.46505999 402.77509998 141.3828125 399.3046875 C140.86460937 398.43457031 140.34640625 397.56445312 139.8125 396.66796875 C139.255625 395.74628906 138.69875 394.82460938 138.125 393.875 C137.54492188 392.90433594 136.96484375 391.93367187 136.3671875 390.93359375 C134.58382049 387.95226933 132.79263704 384.97575754 131 382 C129.97618916 380.29449489 128.9527319 378.58877746 127.9296875 376.8828125 C126.46466688 374.44038259 124.99900916 371.99835304 123.53076172 369.55786133 C119.73594559 363.24627919 115.98866183 356.9074691 112.25 350.5625 C106.81731942 341.35346832 106.81731942 341.35346832 101.3125 332.1875 C100.71050781 331.19105469 100.10851562 330.19460938 99.48828125 329.16796875 C98.18108405 326.88875509 98.18108405 326.88875509 96 326 C95.84917969 325.23945313 95.69835937 324.47890625 95.54296875 323.6953125 C94.95228894 320.76316092 94.05319041 319.27815789 92.3125 316.875 C89.34535164 312.60883693 86.87779623 308.19629243 84.4296875 303.6171875 C82.8432735 300.7130963 81.1177609 297.93353227 79.33984375 295.14453125 C75.76366271 289.42055635 72.4423347 283.53150515 69.1015625 277.66796875 C68.18503906 276.06888672 68.18503906 276.06888672 67.25 274.4375 C66.69828125 273.46683594 66.1465625 272.49617188 65.578125 271.49609375 C64.19731074 269.31208308 62.84370533 267.77321072 61 266 C60.64587656 264.67203709 60.31478446 263.33783393 60 262 C58.6998708 259.57703194 57.54574093 257.50675943 55.5234375 255.62890625 C53.21433324 253.15994093 52.30457032 250.2614258 51.0625 247.15625 C49.95328553 244.90519711 48.76511581 243.75184427 47 242 C45.97190748 240.27828773 44.99677228 238.52437388 44.0625 236.75 C41.77579069 232.45600471 39.43367412 228.21212829 37 224 C36.67 224 36.34 224 36 224 Z M176.03721845 497.02387512 C171.64808709 497.03703345 167.2589835 497.05718906 162.86987305 497.07592773 C160.88657132 497.08417347 158.90326951 497.09240256 156.91996765 497.10061646 C138.80817571 497.17615915 120.69640598 497.2570958 102.58464336 497.33933926 C89.26195115 497.39976099 75.93925311 497.45760071 62.61653489 497.51199192 C53.17784848 497.55076423 43.73917921 497.592733 34.30051643 497.63687855 C28.70132884 497.66297782 23.10214358 497.68780033 17.50293541 497.70907402 C-5.94892131 497.79915271 -29.38655975 497.99443518 -52.83009052 498.6604147 C-65.6634014 499.01884911 -78.48434536 499.06626637 -91.3218565 498.9651041 C-95.21574805 498.93763142 -99.10625002 498.96131051 -103 499 C-104.2984082 498.98936523 -105.59681641 498.97873047 -106.93457031 498.96777344 C-113.28782688 498.91099546 -113.28782688 498.91099546 -118.90332031 501.40820312 C-120.33393956 503.29313372 -121.29331094 505.08828982 -122.25 507.25 C-122.77400391 508.25353516 -122.77400391 508.25353516 -123.30859375 509.27734375 C-125.90483747 514.34051637 -128.03496223 519.37061299 -129 525 C-130.485 525.495 -130.485 525.495 -132 526 C-133.59981876 528.3321727 -133.59981876 528.3321727 -135.07421875 531.2578125 C-135.94651123 532.8989502 -135.94651123 532.8989502 -136.83642578 534.57324219 C-137.45357329 535.75709747 -138.07059576 536.94101794 -138.6875 538.125 C-139.31920868 539.31983395 -139.9518605 540.51416974 -140.58544922 541.70800781 C-142.40055833 545.13331134 -144.20086324 548.56627849 -146 552 C-147.21172765 554.30085799 -148.42549137 556.60056944 -149.64379883 558.89794922 C-150.55162114 560.61149488 -151.45192619 562.32901744 -152.3515625 564.046875 C-154 567 -154 567 -156.0859375 570.10546875 C-158.15049928 573.22759177 -159.49469817 576.2969896 -160.875 579.75390625 C-162 582 -162 582 -163.87036133 584.29052734 C-165.97391976 586.96681892 -167.57818977 589.60881306 -169.19921875 592.59765625 C-169.76833984 593.64630859 -170.33746094 594.69496094 -170.92382812 595.77539062 C-171.50583984 596.86013672 -172.08785156 597.94488281 -172.6875 599.0625 C-173.28111328 600.15111328 -173.87472656 601.23972656 -174.48632812 602.36132812 C-177.5024088 607.62329961 -177.5024088 607.62329961 -179.55004883 613.27905273 C-179.69853271 613.84696533 -179.8470166 614.41487793 -180 615 C-180.99 615.495 -180.99 615.495 -182 616 C-182 616.66 -182 617.32 -182 618 C-182.66 618.66 -183.32 619.32 -184 620 C-184.97581013 621.83429411 -185.90728504 623.69235932 -186.8125 625.5625 C-189.39365981 630.80567523 -192.10468361 635.92515377 -195 641 C-195.6084375 642.07121094 -196.216875 643.14242187 -196.84375 644.24609375 C-200.10657304 649.97949903 -203.40144324 655.6910764 -206.75 661.375 C-211.67132422 668.78242343 -211.67132422 668.78242343 -214 677 C-214.66 677.33 -215.32 677.66 -216 678 C-137.77393779 678.15405433 -59.55002402 677.94858171 18.67536151 677.61044246 C27.43595177 677.57272925 36.19654953 677.53737155 44.95715332 677.50296021 C55.78714982 677.46029346 66.617124 677.41398612 77.44708568 677.36322176 C83.05896287 677.33695193 88.6708367 677.31203503 94.28273582 677.29090881 C99.49264735 677.27119072 104.70251993 677.24701659 109.91239595 677.21950519 C111.79782234 677.21027132 113.68325695 677.20255198 115.5686965 677.19658196 C125.36200155 677.16460116 135.11084955 676.98616942 144.8860597 676.35693222 C151.80104935 675.91264568 158.70475383 675.84820711 165.63305664 675.86962891 C167.69880405 675.87502955 169.76433681 675.86960967 171.83007812 675.86328125 C179.80599099 675.85962825 187.68315462 676.18821031 195.63989258 676.77294922 C199.93311132 677.06305264 204.19860183 677.14833489 208.5 677.125 C209.21285156 677.12886719 209.92570312 677.13273438 210.66015625 677.13671875 C215.38168675 677.12850739 220.04850036 676.85849788 224.75610352 676.49780273 C233.17363076 675.90258143 241.56131483 675.87222709 249.99609375 675.90234375 C251.56649225 675.90421518 253.13689135 675.90563564 254.70729065 675.90663147 C258.78583466 675.91039968 262.8643415 675.92017929 266.94287109 675.93133545 C271.12662249 675.94167404 275.31038006 675.9461554 279.49414062 675.95117188 C287.66277724 675.96180835 295.83138396 675.97881376 304 676 C302.88023841 672.5670975 301.83458512 669.39121413 299.96875 666.29296875 C299.57518311 665.63232422 299.18161621 664.97167969 298.77612305 664.29101562 C298.35500244 663.59685547 297.93388184 662.90269531 297.5 662.1875 C296.60013835 660.68106249 295.70040249 659.17454984 294.80078125 657.66796875 C294.33881348 656.89888184 293.8768457 656.12979492 293.40087891 655.33740234 C291.14301062 651.57009126 288.91448625 647.78562346 286.6875 644 C286.06125732 642.93700684 286.06125732 642.93700684 285.42236328 641.85253906 C282.53645472 636.94336396 279.72705119 631.99959385 277 627 C276.34 627 275.68 627 275 627 C274.731875 626.13375 274.46375 625.2675 274.1875 624.375 C273.02888013 621.08208036 271.61790161 618.08872125 270 615 C269.34 615 268.68 615 268 615 C266.66666667 611.66666667 265.33333333 608.33333333 264 605 C263.34 605 262.68 605 262 605 C261.76152344 604.34257813 261.52304687 603.68515625 261.27734375 603.0078125 C259.6335994 599.13722183 257.62158349 595.53784628 255.5625 591.875 C255.12728027 591.09745361 254.69206055 590.31990723 254.24365234 589.51879883 C252.83466932 587.00934542 251.41866005 584.5039946 250 582 C249.26740967 580.70570068 249.26740967 580.70570068 248.52001953 579.38525391 C247.06134221 576.81566022 245.59486294 574.25070927 244.125 571.6875 C243.67326416 570.8939209 243.22152832 570.1003418 242.75610352 569.28271484 C240.4224623 565.23959125 237.96790822 561.61814408 235 558 C233.91015625 556.04296875 233.91015625 556.04296875 233.0625 554.1875 C231.03165776 549.97330167 228.89049073 545.69668202 226 542 C225.34 542 224.68 542 224 542 C223.5978125 540.700625 223.5978125 540.700625 223.1875 539.375 C222.02888013 536.08208036 220.61790161 533.08872125 219 530 C218.34 530 217.68 530 217 530 C216.74476563 529.13503906 216.48953125 528.27007813 216.2265625 527.37890625 C214.95433788 523.87421105 213.37054407 521.08187323 211.375 517.9375 C210.66252132 516.80614012 209.95028949 515.67462475 209.23828125 514.54296875 C208.8717041 513.96466309 208.50512695 513.38635742 208.12744141 512.79052734 C206.24179057 509.79586229 204.40592465 506.77076977 202.5625 503.75 C200.53724606 500.18385375 200.53724606 500.18385375 198 497 C195.89990546 496.92112433 193.79712106 496.91362037 191.69563293 496.93275452 C191.02910228 496.93714855 190.36257162 496.94154259 189.67584306 496.94606978 C188.21656377 496.95575009 186.75729663 496.96740789 185.29804635 496.98076367 C182.2111185 497.00660351 179.1242344 497.01499251 176.03721845 497.02387512 Z " fill="#19366C" transform="translate(438,27)"/>
<path d="M0 0 C0 0.33 0 0.66 0 1 C-25.245 1.495 -25.245 1.495 -51 2 C-51 5.29253652 -50.4953823 6.20826694 -48.83984375 8.95703125 C-48.3794873 9.73272461 -47.91913086 10.50841797 -47.44482422 11.30761719 C-46.94740723 12.13422852 -46.44999023 12.96083984 -45.9375 13.8125 C-41.90971575 20.61926267 -38.21612622 27.44201212 -34.7734375 34.5625 C-32.34829645 39.26321394 -29.59615439 43.74399378 -26.75537109 48.20410156 C-25.7793549 49.76825711 -24.88166637 51.38078581 -24 53 C-24.33 53.66 -24.66 54.32 -25 55 C-29 49.25 -29 49.25 -29 47 C-29.66 47 -30.32 47 -31 47 C-31.83819158 45.37750059 -32.6704116 43.75191503 -33.5 42.125 C-33.9640625 41.22007812 -34.428125 40.31515625 -34.90625 39.3828125 C-36 37 -36 37 -36 35 C-36.66 35 -37.32 35 -38 35 C-38.31710937 34.3915625 -38.63421875 33.783125 -38.9609375 33.15625 C-43.22122508 25.15349985 -47.97418511 17.50914961 -52.83666992 9.86181641 C-54 8 -54 8 -55.03870296 5.41926384 C-56.88459039 2.59292085 -56.88459039 2.59292085 -60.73449802 2.39758492 C-62.33765891 2.38257032 -63.94121862 2.39565171 -65.54408264 2.42996216 C-66.42764433 2.42906802 -67.31120602 2.42817388 -68.2215423 2.42725265 C-71.19655679 2.43039795 -74.17002778 2.46949362 -77.14477539 2.50830078 C-79.27407993 2.51793465 -81.40339537 2.52537346 -83.53271484 2.53077698 C-89.33919392 2.55188967 -95.14502953 2.60419604 -100.95124364 2.66202784 C-107.06142729 2.71780194 -113.17173925 2.74571926 -119.28208923 2.77682495 C-129.58657749 2.83316003 -139.89079841 2.90774068 -150.19506836 2.99511719 C-164.57607602 3.11703915 -178.95714303 3.20697408 -193.33842099 3.28991342 C-204.63320602 3.35622542 -215.92793739 3.43114038 -227.22265625 3.5078125 C-228.40650005 3.51580069 -229.59034384 3.52378888 -230.81006169 3.53201914 C-256.55206615 3.70808988 -282.28600122 3.94309004 -308.01924992 4.66937447 C-320.78953516 5.02319207 -333.54849613 5.06566392 -346.32288265 4.96526909 C-350.21648613 4.937627 -354.10655143 4.9593503 -358 5 C-359.30420898 4.99516602 -360.60841797 4.99033203 -361.95214844 4.98535156 C-368.22740551 4.92737391 -368.22740551 4.92737391 -373.80957031 7.31445312 C-375.11603156 9.07771179 -375.93459675 10.71561007 -376.75 12.75 C-377.05164063 13.37132812 -377.35328125 13.99265625 -377.6640625 14.6328125 C-379.67476717 18.84995415 -381.36666659 23.22666645 -382.9375 27.625 C-384 30 -384 30 -385.3359375 31.23046875 C-387.68734863 33.73091298 -389.11930477 36.66569582 -390.6875 39.6875 C-391.00783203 40.29400391 -391.32816406 40.90050781 -391.65820312 41.52539062 C-392.44371484 43.01434566 -393.22252942 44.50683047 -394 46 C-394.640625 44.234375 -394.640625 44.234375 -395 42 C-394.109375 40.140625 -394.109375 40.140625 -392.75 38.25 C-390.59897527 35.04983787 -389.26626701 32.05808109 -388.0078125 28.3984375 C-386.11780002 23.90050083 -383.50966994 19.75820722 -381.03515625 15.5625 C-379.54606557 13.01204549 -378.18467196 10.42331438 -376.87280273 7.77734375 C-376.51991684 7.06698975 -376.16703094 6.35663574 -375.80345154 5.62475586 C-375.53831253 5.08858643 -375.27317352 4.55241699 -375 4 C-376.30106689 4.03029297 -377.60213379 4.06058594 -378.94262695 4.09179688 C-385.06581113 4.23282637 -391.18912256 4.36764586 -397.3125 4.5 C-398.41924072 4.52400879 -399.52598145 4.54801758 -400.66625977 4.57275391 C-416.52931552 4.91092651 -432.38097117 5.10559065 -448.24731445 4.96289062 C-458.16488768 4.89759549 -458.16488768 4.89759549 -468 6 C-469.89290509 7.93704708 -469.89290509 7.93704708 -471 10 C-471.99 10 -472.98 10 -474 10 C-473.79375 9.38125 -473.5875 8.7625 -473.375 8.125 C-473.25125 7.42375 -473.1275 6.7225 -473 6 C-473.66 5.34 -474.32 4.68 -475 4 C-473.5459375 4.0309375 -473.5459375 4.0309375 -472.0625 4.0625 C-469.12534105 4.35618499 -469.12534105 4.35618499 -468 3 C-466.18807013 2.88740707 -464.37173654 2.84542336 -462.55637646 2.83010006 C-461.36696648 2.81765882 -460.1775565 2.80521759 -458.95210379 2.79239935 C-457.61456942 2.78346144 -456.27703443 2.77461636 -454.9394989 2.76585388 C-453.53067463 2.75303778 -452.12185425 2.73978874 -450.71303779 2.72614151 C-446.8192662 2.6897066 -442.92546671 2.65951967 -439.03163517 2.63030541 C-434.83387941 2.59774634 -430.63617504 2.55950127 -426.4384613 2.52197266 C-418.1760249 2.44904138 -409.9135525 2.38151708 -401.6510556 2.3158391 C-394.87567501 2.26187561 -388.10031348 2.20592407 -381.32496071 2.14857674 C-380.35714823 2.14038614 -379.38933575 2.13219555 -378.39219562 2.12375676 C-376.42421608 2.10709225 -374.4562366 2.09042276 -372.48825715 2.07374836 C-353.95009404 1.916901 -335.41188553 1.76608841 -316.87365583 1.6173485 C-301.21610588 1.49159416 -285.55860215 1.36108342 -269.90112305 1.22680664 C-179.93350413 0.45587732 -89.97173565 -0.30603093 0 0 Z " fill="#142C59" transform="translate(693,522)"/>
<path d="M0 0 C35.64 0 71.28 0 108 0 C108 0.33 108 0.66 108 1 C82.755 1.495 82.755 1.495 57 2 C57 5.29253652 57.5046177 6.20826694 59.16015625 8.95703125 C59.85069092 10.12057129 59.85069092 10.12057129 60.55517578 11.30761719 C61.05259277 12.13422852 61.55000977 12.96083984 62.0625 13.8125 C66.09028425 20.61926267 69.78387378 27.44201212 73.2265625 34.5625 C75.65170355 39.26321394 78.40384561 43.74399378 81.24462891 48.20410156 C82.2206451 49.76825711 83.11833363 51.38078581 84 53 C83.67 53.66 83.34 54.32 83 55 C79 49.25 79 49.25 79 47 C78.34 47 77.68 47 77 47 C76.16180842 45.37750059 75.3295884 43.75191503 74.5 42.125 C74.0359375 41.22007812 73.571875 40.31515625 73.09375 39.3828125 C72 37 72 37 72 35 C71.34 35 70.68 35 70 35 C69.68289063 34.3915625 69.36578125 33.783125 69.0390625 33.15625 C64.77877492 25.15349985 60.02581489 17.50914961 55.16333008 9.86181641 C54 8 54 8 52.77253246 5.42121601 C51.23273659 2.77448879 51.23273659 2.77448879 48.50689411 2.38476086 C47.00667603 2.3916743 47.00667603 2.3916743 45.47615051 2.39872742 C44.32770157 2.3918541 43.17925262 2.38498077 41.9960022 2.37789917 C40.73508759 2.39587555 39.47417297 2.41385193 38.17504883 2.43237305 C36.83472242 2.43378331 35.49439215 2.43299195 34.15406799 2.43016052 C30.51352841 2.42872407 26.87381008 2.45814949 23.23346162 2.49303031 C19.42982776 2.52425638 15.62617572 2.52722156 11.82243347 2.53315735 C4.61874375 2.54870694 -2.58456722 2.58975011 -9.78809005 2.6399048 C-17.98867556 2.69576388 -26.18927903 2.72327605 -34.39000738 2.74838197 C-51.26022412 2.8006653 -68.13007203 2.88862884 -85 3 C-85 2.67 -85 2.34 -85 2 C-56.95 1.67 -28.9 1.34 0 1 C0 0.67 0 0.34 0 0 Z " fill="#132953" transform="translate(585,522)"/>
<path d="M0 0 C1.29554558 -0.00639748 1.29554558 -0.00639748 2.61726379 -0.01292419 C4.04949028 -0.01224442 4.04949028 -0.01224442 5.51065063 -0.0115509 C7.01056801 -0.01658882 7.01056801 -0.01658882 8.54078674 -0.02172852 C11.86490095 -0.03127111 15.18896497 -0.03318334 18.51309204 -0.03425598 C20.81376161 -0.03746647 23.11443097 -0.04083037 25.4151001 -0.04434204 C30.24562046 -0.05034174 35.0761229 -0.0521811 39.90664673 -0.05158997 C46.10663686 -0.05148834 52.30651247 -0.06513713 58.50647545 -0.08236217 C63.26072724 -0.0934632 68.0149512 -0.09550975 72.76921463 -0.09498024 C75.05543029 -0.09616336 77.34164661 -0.10060359 79.62784958 -0.10831261 C82.82193845 -0.11807343 86.01577676 -0.1152498 89.20986938 -0.10920715 C90.16063858 -0.11482666 91.11140778 -0.12044617 92.09098816 -0.12623596 C92.96032486 -0.12204147 93.82966156 -0.11784698 94.7253418 -0.11352539 C95.48083502 -0.11407016 96.23632824 -0.11461493 97.01471519 -0.1151762 C98.98965454 0.13371277 98.98965454 0.13371277 101.98965454 2.13371277 C101.36059204 2.04347839 100.73152954 1.95324402 100.08340454 1.86027527 C96.92280034 1.73651667 94.93581084 1.92009725 91.98965454 3.13371277 C86.92435918 9.54864275 83.78796369 17.09844716 81.05215454 24.75871277 C79.98965454 27.13371277 79.98965454 27.13371277 78.65371704 28.36418152 C76.30230591 30.86462575 74.87034978 33.79940859 73.30215454 36.82121277 C72.98182251 37.42771667 72.66149048 38.03422058 72.33145142 38.65910339 C71.54593971 40.14805843 70.76712512 41.64054324 69.98965454 43.13371277 C69.34902954 41.36808777 69.34902954 41.36808777 68.98965454 39.13371277 C69.88027954 37.27433777 69.88027954 37.27433777 71.23965454 35.38371277 C73.39067927 32.18355064 74.72338753 29.19179386 75.98184204 25.53215027 C77.87185452 21.0342136 80.4799846 16.89191999 82.95449829 12.69621277 C84.44358897 10.14575826 85.80498258 7.55702715 87.11685181 4.91105652 C87.4697377 4.20070251 87.8226236 3.49034851 88.186203 2.75846863 C88.45134201 2.22229919 88.71648102 1.68612976 88.98965454 1.13371277 C87.68858765 1.16400574 86.38752075 1.19429871 85.04702759 1.22550964 C78.92384341 1.36653914 72.80053198 1.50135863 66.67715454 1.63371277 C65.57041382 1.65772156 64.4636731 1.68173035 63.32339478 1.70646667 C47.46033902 2.04463928 31.60868337 2.23930342 15.74234009 2.09660339 C5.82476687 2.03130826 5.82476687 2.03130826 -4.01034546 3.13371277 C-5.90325055 5.07075985 -5.90325055 5.07075985 -7.01034546 7.13371277 C-8.00034546 7.13371277 -8.99034546 7.13371277 -10.01034546 7.13371277 C-9.80409546 6.51496277 -9.59784546 5.89621277 -9.38534546 5.25871277 C-9.26159546 4.55746277 -9.13784546 3.85621277 -9.01034546 3.13371277 C-9.67034546 2.47371277 -10.33034546 1.81371277 -11.01034546 1.13371277 C-9.55628296 1.16465027 -9.55628296 1.16465027 -8.07284546 1.19621277 C-4.8599444 1.13064336 -3.31818121 0.00736778 0 0 Z " fill="#122851" transform="translate(229.01034545898438,524.8662872314453)"/>
<path d="M0 0 C0.66 0 1.32 0 2 0 C0.76680433 4.07903182 -0.7225292 7.40860374 -3 11 C-4.32 13.31 -5.64 15.62 -7 18 C24.35 18 55.7 18 88 18 C88.495 18.99 88.495 18.99 89 20 C69.12051076 21.2687514 49.24063339 21.11892631 29.33154297 21.06866455 C24.77181468 21.0582791 20.21208055 21.05383492 15.65234375 21.04882812 C6.76821351 21.0382288 -2.11588887 21.02125109 -11 21 C-9.77409755 17.06865767 -8.87151303 14.87151303 -6 12 C-4.79950593 8.89992799 -4.79950593 8.89992799 -4 6 C-3.34 6 -2.68 6 -2 6 C-1.34 4.02 -0.68 2.04 0 0 Z " fill="#173265" transform="translate(379,419)"/>
<path d="M0 0 C0.66 0 1.32 0 2 0 C3.54808686 2.34902755 4.97846955 4.68791746 6.375 7.125 C7.15219789 8.46178038 7.93082948 9.7977283 8.7109375 11.1328125 C9.0922583 11.78693115 9.4735791 12.4410498 9.86645508 13.11499023 C10.9115949 14.85298821 12.03284992 16.54460558 13.16015625 18.23046875 C15.08070478 21.12148554 16.52848778 24.02550774 17.97265625 27.16796875 C19.0870625 29.15525594 20.35961607 30.43148856 22 32 C26 37.48571429 26 37.48571429 26 41 C-3.7 41 -33.4 41 -64 41 C-64 40.67 -64 40.34 -64 40 C-53.38429586 39.15073163 -42.86765211 38.86376294 -32.22265625 38.90234375 C-30.674678 38.90421529 -29.12669915 38.9056357 -27.57872009 38.90663147 C-23.55935957 38.9103988 -19.54003681 38.92017758 -15.52069092 38.93133545 C-11.39726268 38.94167601 -7.27382817 38.94615581 -3.15039062 38.95117188 C4.89975666 38.96180678 12.9498736 38.97881103 21 39 C18.32169244 33.55516115 15.62185944 28.16845118 12.51953125 22.94921875 C11.60977539 21.40717773 11.60977539 21.40717773 10.68164062 19.83398438 C9.42391415 17.71674577 8.16610007 15.5995592 6.90820312 13.48242188 C6.30556641 12.46083984 5.70292969 11.43925781 5.08203125 10.38671875 C4.53780518 9.47108154 3.9935791 8.55544434 3.43286133 7.61206055 C2.06830537 5.12451851 0.99104344 2.65546899 0 0 Z " fill="#02060D" transform="translate(720,663)"/>
<path d="M0 0 C0.33 0.66 0.66 1.32 1 2 C33.01 2.33 65.02 2.66 98 3 C93.38919212 5.30540394 89.99771576 5.17797069 85 5.0625 C71.86727857 4.90374313 58.75517801 5.23928437 45.62744141 5.57302856 C13.3910046 6.39125994 13.3910046 6.39125994 4 5 C2.33369491 4.96528531 0.66585346 4.94794208 -1 5 C-0.67 3.35 -0.34 1.7 0 0 Z " fill="#09152A" transform="translate(76,788)"/>
<path d="M0 0 C0.75216293 -0.00095673 1.50432587 -0.00191345 2.27928162 -0.00289917 C3.86335331 -0.00357531 5.44742787 -0.00176079 7.03149414 0.00244141 C9.40322428 0.00774459 11.77476043 0.00250448 14.14648438 -0.00390625 C22.65652482 -0.00729244 31.0625803 0.27401985 39.55102539 0.91015625 C43.97690684 1.20697248 48.37504425 1.24600392 52.80859375 1.1953125 C53.59943359 1.19080078 54.39027344 1.18628906 55.20507812 1.18164062 C57.09378544 1.17019391 58.98245211 1.15228303 60.87109375 1.1328125 C60.87109375 1.7928125 60.87109375 2.4528125 60.87109375 3.1328125 C27.87109375 3.1328125 -5.12890625 3.1328125 -39.12890625 3.1328125 C-38.79890625 2.4728125 -38.46890625 1.8128125 -38.12890625 1.1328125 C-37.50435547 1.13804932 -36.87980469 1.14328613 -36.23632812 1.14868164 C-33.36719801 1.16965326 -30.4980841 1.18253626 -27.62890625 1.1953125 C-26.15550781 1.20788086 -26.15550781 1.20788086 -24.65234375 1.22070312 C-23.68554688 1.22392578 -22.71875 1.22714844 -21.72265625 1.23046875 C-20.40297852 1.23832397 -20.40297852 1.23832397 -19.05664062 1.24633789 C-16.07519856 1.13072994 -13.17219041 0.75213568 -10.21646118 0.36088562 C-6.81588895 -0.01063951 -3.41606626 -0.00989102 0 0 Z " fill="#081226" transform="translate(594.12890625,701.8671875)"/>
<path d="M0 0 C1.5420258 3.9989869 0.50033915 7.65249364 -0.375 11.6875 C-0.51421875 12.37650391 -0.6534375 13.06550781 -0.796875 13.77539062 C-1.85594915 18.85594915 -1.85594915 18.85594915 -3 20 C-3.54987728 22.45651699 -4.04318067 24.90093888 -4.5 27.375 C-4.63019531 28.04144531 -4.76039063 28.70789063 -4.89453125 29.39453125 C-6.66502588 38.85505305 -7.15112255 48.30942318 -7.09765625 57.91796875 C-7.0962413 58.90122635 -7.09482635 59.88448395 -7.09336853 60.89753723 C-7.08783463 63.99422433 -7.07529514 67.09083528 -7.0625 70.1875 C-7.05747644 72.30533749 -7.05291504 74.42317612 -7.04882812 76.54101562 C-7.03788698 81.69403912 -7.02066921 86.84700671 -7 92 C-7.33 92 -7.66 92 -8 92 C-11.7655136 68.16295407 -12.01705721 42.26568016 -5 19 C-4.28683463 16.25633172 -3.61295101 13.50316913 -2.9375 10.75 C-1.13408304 3.40224913 -1.13408304 3.40224913 0 0 Z " fill="#091429" transform="translate(430,49)"/>
<path d="M0 0 C1 3 1 3 -0.40625 5.93359375 C-1.09399958 7.10757807 -1.79266368 8.27521174 -2.5 9.4375 C-2.86585205 10.05786133 -3.2317041 10.67822266 -3.60864258 11.31738281 C-4.73030987 13.21696891 -5.86442399 15.1087044 -7 17 C-8.23268465 19.08125372 -9.46212773 21.16443263 -10.6875 23.25 C-11.20699219 24.12140625 -11.72648438 24.9928125 -12.26171875 25.890625 C-14.65923106 30.17920881 -16.80272822 34.60545644 -19 39 C-5.14 39.495 -5.14 39.495 9 40 C9 40.33 9 40.66 9 41 C-1.62280106 42.39315424 -12.31126627 42.09675083 -23 42 C-23.33 42.66 -23.66 43.32 -24 44 C-23.41308576 40.01695195 -22.17596483 37.20283083 -20.12109375 33.75390625 C-19.53287842 32.7575415 -18.94466309 31.76117676 -18.33862305 30.73461914 C-17.71125244 29.68781982 -17.08388184 28.64102051 -16.4375 27.5625 C-15.16095247 25.40654945 -13.88490868 23.25030054 -12.609375 21.09375 C-11.98998047 20.05089844 -11.37058594 19.00804687 -10.73242188 17.93359375 C-7.8762355 13.09707522 -5.11609607 8.2078376 -2.35546875 3.31640625 C-1 1 -1 1 0 0 Z " fill="#081226" transform="translate(243,665)"/>
<path d="M0 0 C1.2065625 0.0309375 1.2065625 0.0309375 2.4375 0.0625 C2.1075 1.0525 1.7775 2.0425 1.4375 3.0625 C2.30300544 5.11469914 2.30300544 5.11469914 3.71875 7.23828125 C4.22752686 8.05917236 4.73630371 8.88006348 5.26049805 9.72583008 C5.81390869 10.60005615 6.36731934 11.47428223 6.9375 12.375 C11.24477811 19.34432435 15.15867949 26.27158674 18.69921875 33.66015625 C21.09905831 38.3573703 23.84947109 42.81942853 26.68237305 47.2668457 C27.65827337 48.83094259 28.55588676 50.44338338 29.4375 52.0625 C28.9425 53.0525 28.9425 53.0525 28.4375 54.0625 C24.4375 48.3125 24.4375 48.3125 24.4375 46.0625 C23.7775 46.0625 23.1175 46.0625 22.4375 46.0625 C21.59930842 44.44000059 20.7670884 42.81441503 19.9375 41.1875 C19.4734375 40.28257812 19.009375 39.37765625 18.53125 38.4453125 C17.4375 36.0625 17.4375 36.0625 17.4375 34.0625 C16.7775 34.0625 16.1175 34.0625 15.4375 34.0625 C15.12039063 33.4540625 14.80328125 32.845625 14.4765625 32.21875 C10.91450833 25.52759852 7.03625571 19.10726317 2.95361328 12.72265625 C0.54208008 8.92919079 -1.62670279 5.12956579 -3.5625 1.0625 C-2.5625 0.0625 -2.5625 0.0625 0 0 Z " fill="#050C19" transform="translate(639.5625,522.9375)"/>
<path d="M0 0 C0.66 0 1.32 0 2 0 C0.60962184 4.72584493 -1.43177846 8.78854875 -3.9375 13 C-6.44764018 17.26584119 -8.78854886 21.57077929 -11 26 C-11.639375 26.928125 -12.27875 27.85625 -12.9375 28.8125 C-15.02555448 32.03949329 -16.45513261 35.19789907 -17.875 38.75390625 C-19 41 -19 41 -20.765625 43.1328125 C-23.96338927 47.23623728 -26.28798535 51.74064865 -28.75 56.3125 C-29.25660156 57.24384766 -29.76320313 58.17519531 -30.28515625 59.13476562 C-31.5278407 61.42083607 -32.76595901 63.70925569 -34 66 C-35.12109375 62.26513672 -35.12109375 62.26513672 -34.03125 59.87890625 C-33.5259375 59.11449219 -33.020625 58.35007812 -32.5 57.5625 C-29.85752761 53.41270182 -27.43352415 49.21538239 -25.125 44.875 C-24.52945312 43.75867188 -23.93390625 42.64234375 -23.3203125 41.4921875 C-22.88460938 40.66976562 -22.44890625 39.84734375 -22 39 C-21.34 39 -20.68 39 -20 39 C-19.88229248 38.26281738 -19.76458496 37.52563477 -19.64331055 36.76611328 C-19.00206727 34.00888887 -18.14889439 32.15948594 -16.70703125 29.7421875 C-16.24417725 28.95658447 -15.78132324 28.17098145 -15.30444336 27.36157227 C-14.81210205 26.54100342 -14.31976074 25.72043457 -13.8125 24.875 C-12.80889932 23.17376456 -11.80628934 21.47194428 -10.8046875 19.76953125 C-10.3209668 18.95049316 -9.83724609 18.13145508 -9.33886719 17.28759766 C-6.02933106 11.63290154 -2.90343681 5.87377309 0 0 Z " fill="#070F20" transform="translate(296,568)"/>
<path d="M0 0 C2.12843845 3.19265768 2.53244346 5.07375043 3.125 8.8125 C3.29257812 9.82957031 3.46015625 10.84664062 3.6328125 11.89453125 C4.29617402 17.504876 4.33864803 21.17108143 1.4375 26.125 C0.89134033 27.07270264 0.34518066 28.02040527 -0.2175293 28.99682617 C-0.80574463 29.98787354 -1.39395996 30.9789209 -2 32 C-2.59143799 33.02005127 -3.18287598 34.04010254 -3.79223633 35.09106445 C-4.97429666 37.1283489 -6.16146169 39.16268109 -7.35400391 41.19384766 C-9.4939874 44.84216718 -11.59298126 48.5129768 -13.6875 52.1875 C-14.28949219 53.23292969 -14.89148438 54.27835938 -15.51171875 55.35546875 C-16.74365314 57.54449653 -17.9051431 59.74017222 -19 62 C-19.66 62 -20.32 62 -21 62 C-19.51712926 57.01569102 -17.39702815 52.67423403 -14.9375 48.125 C-14.54481934 47.39120117 -14.15213867 46.65740234 -13.74755859 45.90136719 C-2.45885457 24.90392884 -2.45885457 24.90392884 0.84375 20.59375 C2.61290676 16.62510105 1.55851912 13.38117041 0.625 9.25 C0.04394094 6.50358805 -0.4961117 3.76249349 -1 1 C-0.67 0.67 -0.34 0.34 0 0 Z " fill="#0C1B37" transform="translate(423,141)"/>
<path d="M0 0 C4.2286423 1.82343919 5.08114302 3.82857178 7 8 C7.495 8.61875 7.99 9.2375 8.5 9.875 C10.71609118 13.01446251 11.73221431 16.37775517 13 20 C12.34 20.33 11.68 20.66 11 21 C10.61328125 20.26394531 10.2265625 19.52789062 9.828125 18.76953125 C9.30734375 17.79371094 8.7865625 16.81789063 8.25 15.8125 C7.73953125 14.84957031 7.2290625 13.88664062 6.703125 12.89453125 C5.01425771 10.02423156 3.10270394 7.575243 1 5 C0.62190186 5.7113208 0.24380371 6.4226416 -0.14575195 7.15551758 C-1.86241786 10.37752289 -3.58734952 13.59503019 -5.3125 16.8125 C-5.90740234 17.93205078 -6.50230469 19.05160156 -7.11523438 20.20507812 C-7.69208984 21.27822266 -8.26894531 22.35136719 -8.86328125 23.45703125 C-9.39219971 24.44678955 -9.92111816 25.43654785 -10.46606445 26.45629883 C-11.81314841 28.69014694 -13.05968213 30.28346715 -15 32 C-15.57486354 27.11365993 -13.74704139 24.92434484 -11 21 C-10.27973611 19.30778911 -9.5607115 17.61501078 -8.85424805 15.91699219 C-7.40636453 12.66784061 -5.60731804 9.62959412 -3.8125 6.5625 C-3.44447266 5.92634766 -3.07644531 5.29019531 -2.69726562 4.63476562 C-1.80166504 3.08781915 -0.9013332 1.54361338 0 0 Z " fill="#050C19" transform="translate(473,248)"/>
<path d="M0 0 C0.66 0 1.32 0 2 0 C-0.23254154 5.80932464 -3.1294149 11.23557364 -6 16.75 C-6.87023804 18.42267944 -6.87023804 18.42267944 -7.75805664 20.12915039 C-12.23640936 28.67302788 -16.95021548 37.03464206 -21.95703125 45.27832031 C-23.47103328 47.77755774 -24.95024156 50.29728351 -26.4375 52.8125 C-28.13955508 55.6831302 -29.96211348 58.35609475 -32 61 C-31.4133247 57.24936435 -30.35059992 54.440724 -28.49609375 51.13671875 C-27.75649414 49.80737305 -27.75649414 49.80737305 -27.00195312 48.45117188 C-26.48568359 47.53916016 -25.96941406 46.62714844 -25.4375 45.6875 C-24.91736328 44.75615234 -24.39722656 43.82480469 -23.86132812 42.86523438 C-22.58023026 40.57336205 -21.29297895 38.28518387 -20 36 C-19.34 36 -18.68 36 -18 36 C-17.89800293 35.29875 -17.79600586 34.5975 -17.69091797 33.875 C-16.89203579 30.5507468 -15.58157815 28.00146179 -13.9453125 25 C-13.02298828 23.2984375 -13.02298828 23.2984375 -12.08203125 21.5625 C-11.42974038 20.37497095 -10.77739616 19.18747121 -10.125 18 C-9.47988923 16.81281473 -8.8353524 15.62531738 -8.19140625 14.4375 C-6.47465519 11.28355232 -4.75441692 8.13315341 -3 5 C-2.47776855 4.05125 -1.95553711 3.1025 -1.41748047 2.125 C-0.94971191 1.42375 -0.48194336 0.7225 0 0 Z " fill="#070F1F" transform="translate(448,294)"/>
<path d="M0 0 C2.32081941 2.1512599 3.89042169 4.28129812 5.453125 7.02734375 C5.90405518 7.81367187 6.35498535 8.6 6.81958008 9.41015625 C7.52763794 10.66119141 7.52763794 10.66119141 8.25 11.9375 C9.23808813 13.66547503 10.22636913 15.39333978 11.21484375 17.12109375 C11.6929248 17.9601123 12.17100586 18.79913086 12.66357422 19.66357422 C14.35647905 22.62321967 16.0822432 25.56204717 17.8125 28.5 C27 44.25634058 27 44.25634058 27 47 C27.66 47 28.32 47 29 47 C30.65 50.63 32.3 54.26 34 58 C33.34 58 32.68 58 32 58 C28 51.375 28 51.375 28 48 C27.34 48 26.68 48 26 48 C25.66379639 47.40276123 25.32759277 46.80552246 24.98120117 46.19018555 C23.38446127 43.35530139 21.78616283 40.52130023 20.1875 37.6875 C19.60524658 36.65471924 19.02299316 35.62193848 18.4230957 34.55786133 C15.54188846 29.45775286 12.64437093 24.36917782 9.6875 19.3125 C9.18065674 18.44536377 8.67381348 17.57822754 8.15161133 16.68481445 C7.18911065 15.04309035 6.22290554 13.40353143 5.25268555 11.76635742 C4.8225415 11.03263916 4.39239746 10.2989209 3.94921875 9.54296875 C3.38207153 8.5842688 3.38207153 8.5842688 2.8034668 7.60620117 C2 6 2 6 2 4 C1.01 3.67 0.02 3.34 -1 3 C-0.67 2.01 -0.34 1.02 0 0 Z " fill="#081225" transform="translate(674,584)"/>
<path d="M0 0 C1 3 1 3 -0.1875 5.42578125 C-0.785625 6.37839844 -1.38375 7.33101563 -2 8.3125 C-4.61143003 12.61186811 -6.99870091 16.90857745 -9.1875 21.4375 C-12.34610746 27.85567497 -15.78217323 34.09150027 -19.3125 40.3125 C-19.84061279 41.25085693 -20.36872559 42.18921387 -20.9128418 43.15600586 C-21.41211182 44.02878174 -21.91138184 44.90155762 -22.42578125 45.80078125 C-22.87348877 46.58622314 -23.32119629 47.37166504 -23.7824707 48.1809082 C-25 50 -25 50 -27 51 C-26.41892368 47.2397015 -25.34800504 44.46964968 -23.4375 41.1875 C-22.98246094 40.39730469 -22.52742188 39.60710937 -22.05859375 38.79296875 C-21.70925781 38.20128906 -21.35992187 37.60960937 -21 37 C-20.34 37 -19.68 37 -19 37 C-18.87625 36.2575 -18.7525 35.515 -18.625 34.75 C-18.04513299 32.19858515 -17.26291261 30.2732427 -16 28 C-15.34 28 -14.68 28 -14 28 C-13.87625 27.2575 -13.7525 26.515 -13.625 25.75 C-13.04513299 23.19858515 -12.26291261 21.2732427 -11 19 C-10.34 19 -9.68 19 -9 19 C-8.86078125 17.97132813 -8.86078125 17.97132813 -8.71875 16.921875 C-7.83355943 13.32338291 -6.28941708 10.49148504 -4.5 7.25 C-3.8709375 6.10015625 -3.241875 4.9503125 -2.59375 3.765625 C-1 1 -1 1 0 0 Z " fill="#070F20" transform="translate(415,355)"/>
<path d="M0 0 C0.66 0 1.32 0 2 0 C0.59943358 5.18209575 -1.87501084 9.52906435 -4.48046875 14.17578125 C-6.22323305 17.41490358 -7.67034384 20.71537466 -9.04296875 24.125 C-10 26 -10 26 -11.3828125 27.33203125 C-13.74605363 29.76948043 -15.1374982 32.70075332 -16.6875 35.6875 C-17.00783203 36.29400391 -17.32816406 36.90050781 -17.65820312 37.52539062 C-18.44371484 39.01434566 -19.22252942 40.50683047 -20 42 C-20.640625 40.234375 -20.640625 40.234375 -21 38 C-20.109375 36.140625 -20.109375 36.140625 -18.75 34.25 C-16.59893236 31.04977402 -15.26863513 28.05531071 -14.00390625 24.3984375 C-11.60226869 18.66067305 -8.17160973 13.33970232 -5 8 C-4.484375 7.11570312 -3.96875 6.23140625 -3.4375 5.3203125 C-2.35403966 3.5080961 -1.187262 1.74597352 0 0 Z " fill="#091429" transform="translate(319,526)"/>
<path d="M0 0 C0.66 0 1.32 0 2 0 C3.54808686 2.34902755 4.97846955 4.68791746 6.375 7.125 C7.15219789 8.46178038 7.93082948 9.7977283 8.7109375 11.1328125 C9.0922583 11.78693115 9.4735791 12.4410498 9.86645508 13.11499023 C10.9115949 14.85298821 12.03284992 16.54460558 13.16015625 18.23046875 C15.08070478 21.12148554 16.52848778 24.02550774 17.97265625 27.16796875 C19.0875481 29.1561219 20.35674757 30.43278496 22 32 C24.25 35 24.25 35 26 38 C25.67 38.99 25.34 39.98 25 41 C24.67 40.34 24.34 39.68 24 39 C22.515 38.505 22.515 38.505 21 38 C19.8659668 36.36425781 19.8659668 36.36425781 18.76171875 34.203125 C16.76673067 30.42692427 14.69249724 26.72411134 12.51953125 23.046875 C11.60977539 21.5 11.60977539 21.5 10.68164062 19.921875 C9.42569155 17.79056748 8.16784909 15.66037467 6.90820312 13.53125 C6.30556641 12.50515625 5.70292969 11.4790625 5.08203125 10.421875 C4.53780518 9.49987305 3.9935791 8.57787109 3.43286133 7.62792969 C2.07319221 5.13423768 0.99302417 2.65807378 0 0 Z " fill="#070F1F" transform="translate(720,663)"/>
<path d="M0 0 C0.66 0 1.32 0 2 0 C0.76680433 4.07903182 -0.7225292 7.40860374 -3 11 C-4.32 13.31 -5.64 15.62 -7 18 C1.25 18.33 9.5 18.66 18 19 C18 19.33 18 19.66 18 20 C8.29056184 20.83779436 -1.26055028 21.12276617 -11 21 C-9.77409755 17.06865767 -8.87151303 14.87151303 -6 12 C-4.79950593 8.89992799 -4.79950593 8.89992799 -4 6 C-3.34 6 -2.68 6 -2 6 C-1.34 4.02 -0.68 2.04 0 0 Z " fill="#152D5B" transform="translate(379,419)"/>
<path d="M0 0 C0.83071518 0.00141495 1.66143036 0.0028299 2.51731873 0.00428772 C5.1352825 0.00982455 7.75315642 0.02236463 10.37109375 0.03515625 C12.16080604 0.04017944 13.9505197 0.0447409 15.74023438 0.04882812 C20.09638808 0.05977317 24.45247575 0.07699306 28.80859375 0.09765625 C28.80859375 0.42765625 28.80859375 0.75765625 28.80859375 1.09765625 C27.8956958 1.1227124 26.98279785 1.14776855 26.04223633 1.17358398 C22.64091744 1.26897232 19.23975436 1.36819027 15.83862305 1.4699707 C14.36926607 1.5131633 12.89986395 1.55484881 11.43041992 1.5949707 C9.3128502 1.65305507 7.19550438 1.71663723 5.078125 1.78125 C3.16930542 1.83623657 3.16930542 1.83623657 1.22192383 1.89233398 C-1.69981346 2.06808544 -4.34493901 2.45660312 -7.19140625 3.09765625 C-11.48862187 3.43608166 -14.47546506 3.57495038 -18.19140625 1.09765625 C-12.0823833 0.32904169 -6.15287907 -0.04046726 0 0 Z " fill="#163060" transform="translate(346.19140625,523.90234375)"/>
<path d="M0 0 C1.2065625 0.0309375 1.2065625 0.0309375 2.4375 0.0625 C2.1075 1.0525 1.7775 2.0425 1.4375 3.0625 C2.24050335 5.01766467 2.24050335 5.01766467 3.5625 7.00390625 C4.02140625 7.75220703 4.4803125 8.50050781 4.953125 9.27148438 C5.44296875 10.04814453 5.9328125 10.82480469 6.4375 11.625 C7.40302089 13.16348131 8.36174394 14.70625698 9.3125 16.25390625 C9.74304688 16.93654541 10.17359375 17.61918457 10.6171875 18.32250977 C10.88789062 18.89670654 11.15859375 19.47090332 11.4375 20.0625 C11.1075 20.7225 10.7775 21.3825 10.4375 22.0625 C10.13457031 21.54300781 9.83164062 21.02351562 9.51953125 20.48828125 C7.50633757 17.13708807 5.69007435 14.308914 2.875 11.5625 C-0.19313744 8.41569236 -1.7935551 5.04509663 -3.5625 1.0625 C-2.5625 0.0625 -2.5625 0.0625 0 0 Z " fill="#081226" transform="translate(639.5625,522.9375)"/>
<path d="M0 0 C1.33333333 1.33333333 2.66666667 2.66666667 4 4 C4.5775 4.53625 5.155 5.0725 5.75 5.625 C7 7 7 7 7 9 C-8.18 9 -23.36 9 -39 9 C-39 8.67 -39 8.34 -39 8 C-25.14 8 -11.28 8 3 8 C2.01 6.02 1.02 4.04 0 2 C0 1.34 0 0.68 0 0 Z " fill="#163060" transform="translate(581,429)"/>
<path d="M0 0 C1.51699416 2.80452702 2.45308563 5.3857302 3.125 8.5 C3.29257812 9.2528125 3.46015625 10.005625 3.6328125 10.78125 C4 13 4 13 4 17 C4.66 17 5.32 17 6 17 C6.15855469 17.60585937 6.31710937 18.21171875 6.48046875 18.8359375 C8.09313306 24.62727341 10.20901933 29.70143741 13.109375 34.96875 C13.40328125 35.6390625 13.6971875 36.309375 14 37 C13.67 37.66 13.34 38.32 13 39 C5.85309122 27.2658909 0.06017671 13.9309087 0 0 Z " fill="#12264D" transform="translate(426,151)"/>
<path d="M0 0 C2.12843845 3.19265768 2.53244346 5.07375043 3.125 8.8125 C3.29257812 9.82957031 3.46015625 10.84664062 3.6328125 11.89453125 C4.25447333 17.15219465 4.62449443 20.84975118 1.625 25.375 C1.18414062 26.06335938 0.74328125 26.75171875 0.2890625 27.4609375 C-0.13632812 27.96882813 -0.56171875 28.47671875 -1 29 C-1.66 29 -2.32 29 -3 29 C-1.30669313 23.39906188 -1.30669313 23.39906188 0.66015625 20.83984375 C2.61636002 16.69360427 1.60872115 13.60333314 0.625 9.25 C0.04394094 6.50358805 -0.4961117 3.76249349 -1 1 C-0.67 0.67 -0.34 0.34 0 0 Z " fill="#050C19" transform="translate(423,141)"/>
<path d="M0 0 C0.66015625 1.75390625 0.66015625 1.75390625 1 4 C-0.00390625 5.90234375 -0.00390625 5.90234375 -1.5625 7.9375 C-5.57885489 13.56227805 -8.24744564 19.68474229 -11 26 C-11.66 26 -12.32 26 -13 26 C-11.37514086 20.32692038 -8.70727378 15.36270674 -5.9375 10.1875 C-5.47794922 9.31673828 -5.01839844 8.44597656 -4.54492188 7.54882812 C-1.1468153 1.1468153 -1.1468153 1.1468153 0 0 Z " fill="#0B1932" transform="translate(350,294)"/>
<path d="M0 0 C1 3 1 3 -0.51171875 6.109375 C-1.22671332 7.3289933 -1.95246597 8.5423531 -2.6875 9.75 C-3.21633789 10.64332031 -3.21633789 10.64332031 -3.75585938 11.5546875 C-4.46821748 12.75801271 -5.1842083 13.95919476 -5.90380859 15.15820312 C-7.64399978 18.08203438 -9.3196833 21.04142883 -11 24 C-11.6640625 22.29296875 -11.6640625 22.29296875 -12 20 C-10.9609375 17.73828125 -10.9609375 17.73828125 -9.375 15.3125 C-6.74800499 11.18523978 -4.31485711 7.01344237 -1.98046875 2.71484375 C-1 1 -1 1 0 0 Z " fill="#060D1C" transform="translate(243,665)"/>
<path d="M0 0 C4.26652402 3.7924658 6.89480975 7.67233976 9 13 C9 13.66 9 14.32 9 15 C9.66 15 10.32 15 11 15 C12.65 18.63 14.3 22.26 16 26 C15.34 26 14.68 26 14 26 C10 19.375 10 19.375 10 16 C9.34 16 8.68 16 8 16 C6.66141476 13.71125827 5.32898986 11.41930344 4 9.125 C3.6184375 8.47402344 3.236875 7.82304688 2.84375 7.15234375 C0 2.2265625 0 2.2265625 0 0 Z " fill="#050A16" transform="translate(692,616)"/>
<path d="M0 0 C0.66 0 1.32 0 2 0 C3.12915039 1.48120117 3.12915039 1.48120117 4.34765625 3.54296875 C5.00797852 4.65961914 5.00797852 4.65961914 5.68164062 5.79882812 C6.36516602 6.9812207 6.36516602 6.9812207 7.0625 8.1875 C7.52205078 8.95642578 7.98160156 9.72535156 8.45507812 10.51757812 C10.66380217 14.29608548 12.56371566 17.55702277 13 22 C9.0207978 18.51363477 6.7617354 14.44848564 4.25 9.875 C3.83878906 9.14667969 3.42757812 8.41835938 3.00390625 7.66796875 C0 2.2689213 0 2.2689213 0 0 Z " fill="#081124" transform="translate(568,407)"/>
<path d="M0 0 C0 5.50418927 -5.30777531 9.23182765 -9 13 C-11.27545978 15.09820476 -13.59143637 17.05265068 -16 19 C-16.66 18.67 -17.32 18.34 -18 18 C-16.71034824 16.62437146 -15.37310707 15.29233607 -14 14 C-13.34 14 -12.68 14 -12 14 C-11.7525 13.38125 -11.505 12.7625 -11.25 12.125 C-9.79371361 9.64931313 -8.62187494 9.04874998 -6 8 C-6 7.34 -6 6.68 -6 6 C-4.37550757 4.29220027 -2.70779973 2.62449243 -1 1 C-0.67 0.67 -0.34 0.34 0 0 Z " fill="#102347" transform="translate(204,730)"/>
<path d="M0 0 C0.99 0.33 1.98 0.66 3 1 C1.38395881 3.98411132 -0.24430729 6.9613735 -1.875 9.9375 C-2.33519531 10.78763672 -2.79539063 11.63777344 -3.26953125 12.51367188 C-3.71425781 13.32255859 -4.15898437 14.13144531 -4.6171875 14.96484375 C-5.22989502 16.08814087 -5.22989502 16.08814087 -5.85498047 17.23413086 C-7 19 -7 19 -9 20 C-8.49357808 15.64477147 -7.61588503 12.55760365 -5 9 C-4.34 9 -3.68 9 -3 9 C-2.01 6.03 -1.02 3.06 0 0 Z " fill="#050B18" transform="translate(253,645)"/>
<path d="M0 0 C0.99 0 1.98 0 3 0 C5.90322818 3.64977257 7 5.25852179 7 10 C7.66 10 8.32 10 9 10 C13.09030544 15.14209827 13.09030544 15.14209827 12.75 18.375 C12.5025 18.91125 12.255 19.4475 12 20 C8 13.25 8 13.25 8 11 C7.34 11 6.68 11 6 11 C5.32845067 9.71086513 4.66291141 8.41859796 4 7.125 C3.62875 6.40570312 3.2575 5.68640625 2.875 4.9453125 C2 3 2 3 2 1 C1.34 0.67 0.68 0.34 0 0 Z " fill="#071021" transform="translate(707,643)"/>
<path d="M0 0 C0.66 0 1.32 0 2 0 C0.76576845 4.08245821 -0.69740405 7.41818408 -3 11 C-3.89698244 12.43678325 -4.79274868 13.87432627 -5.6875 15.3125 C-6.45789096 16.54194398 -7.22857328 17.77120566 -8 19 C-8.58203125 17.0859375 -8.58203125 17.0859375 -9 15 C-8.02351983 13.97702078 -7.01868662 12.98095748 -6 12 C-4.79950593 8.89992799 -4.79950593 8.89992799 -4 6 C-3.34 6 -2.68 6 -2 6 C-1.34 4.02 -0.68 2.04 0 0 Z " fill="#071022" transform="translate(379,419)"/>
<path d="M0 0 C0.75 1.625 0.75 1.625 1 4 C-0.5625 6.5625 -0.5625 6.5625 -1.67578125 8.07421875 C-4.48109116 12.15391724 -6.67076925 16.6365744 -9 21 C-10 18 -10 18 -9.30322266 16.11474609 C-8.9272998 15.42461426 -8.55137695 14.73448242 -8.1640625 14.0234375 C-7.75929688 13.270625 -7.35453125 12.5178125 -6.9375 11.7421875 C-6.504375 10.96101563 -6.07125 10.17984375 -5.625 9.375 C-5.19960938 8.58609375 -4.77421875 7.7971875 -4.3359375 6.984375 C-1.1896734 1.1896734 -1.1896734 1.1896734 0 0 Z " fill="#081123" transform="translate(426,334)"/>
<path d="M0 0 C0.99 0.33 1.98 0.66 3 1 C1.716961 3.17221487 0.42427887 5.3375324 -0.875 7.5 C-1.23980469 8.12003906 -1.60460937 8.74007812 -1.98046875 9.37890625 C-2.9322518 10.95367458 -3.96110259 12.48129053 -5 14 C-5.66 14 -6.32 14 -7 14 C-5.23570801 9.02790438 -2.6060834 4.56561939 0 0 Z " fill="#09152A" transform="translate(419,170)"/>
<path d="M0 0 C5.28 0 10.56 0 16 0 C16 0.33 16 0.66 16 1 C15.07767578 1.03867187 15.07767578 1.03867187 14.13671875 1.078125 C9.04764174 1.2336047 9.04764174 1.2336047 5.125 4.0625 C4.75375 4.701875 4.3825 5.34125 4 6 C3.01 6 2.02 6 1 6 C1.20625 5.38125 1.4125 4.7625 1.625 4.125 C1.74875 3.42375 1.8725 2.7225 2 2 C1.34 1.34 0.68 0.68 0 0 Z " fill="#0F2041" transform="translate(218,526)"/>
<path d="M0 0 C1.33333333 1.33333333 2.66666667 2.66666667 4 4 C4.5775 4.53625 5.155 5.0725 5.75 5.625 C7 7 7 7 7 9 C2.71 9 -1.58 9 -6 9 C-6 8.67 -6 8.34 -6 8 C-3.03 8 -0.06 8 3 8 C2.505 7.05125 2.01 6.1025 1.5 5.125 C0 2 0 2 0 0 Z " fill="#0E1E3D" transform="translate(581,429)"/>
<path d="M0 0 C0.33 0 0.66 0 1 0 C1.46557346 3.18141867 1.50963377 5.25343123 -0.3359375 7.95703125 C-1.84258024 9.6935608 -3.37936464 11.369718 -5 13 C-5.33 12.34 -5.66 11.68 -6 11 C-4.78515625 8.3984375 -4.78515625 8.3984375 -3.0625 5.375 C-2.21365234 3.87066406 -2.21365234 3.87066406 -1.34765625 2.3359375 C-0.90292969 1.56507813 -0.45820313 0.79421875 0 0 Z " fill="#081326" transform="translate(471,251)"/>
<path d="M0 0 C0.33 0.66 0.66 1.32 1 2 C-0.43359375 4.8203125 -0.43359375 4.8203125 -2.4375 8.125 C-3.09621094 9.22070312 -3.75492187 10.31640625 -4.43359375 11.4453125 C-4.95050781 12.28835938 -5.46742188 13.13140625 -6 14 C-6.6796875 12.29296875 -6.6796875 12.29296875 -7 10 C-5.8203125 7.67578125 -5.8203125 7.67578125 -4.125 5.3125 C-3.57070313 4.52488281 -3.01640625 3.73726563 -2.4453125 2.92578125 C-1 1 -1 1 0 0 Z " fill="#070F1F" transform="translate(457,280)"/>
<path d="M0 0 C1.0169313 2.65498232 1.13022151 3.69155375 0.00390625 6.359375 C-0.47175781 7.14828125 -0.94742188 7.9371875 -1.4375 8.75 C-1.91058594 9.54921875 -2.38367188 10.3484375 -2.87109375 11.171875 C-3.24363281 11.77515625 -3.61617187 12.3784375 -4 13 C-4.66 13 -5.32 13 -6 13 C-4.58707905 8.1725201 -2.57025846 4.2837641 0 0 Z " fill="#0C1A34" transform="translate(193,577)"/>
<path d="M0 0 C0.625 1.8125 0.625 1.8125 1 4 C0.01 5.485 0.01 5.485 -1 7 C-1.66 7 -2.32 7 -3 7 C-3.33 8.65 -3.66 10.3 -4 12 C-4.66 12 -5.32 12 -6 12 C-4.68139111 7.38486888 -2.78644563 3.90102388 0 0 Z " fill="#0D1D3B" transform="translate(164,630)"/>
<path d="M0 0 C0.75 1.5625 0.75 1.5625 1 4 C-0.13084437 6.50286409 -1.52139516 8.67007722 -3 11 C-3.66 11 -4.32 11 -5 11 C-3.77472971 6.94718288 -2.30119506 3.55639236 0 0 Z " fill="#0D1C38" transform="translate(103,739)"/>
<path d="M0 0 C1 2 1 2 0.1875 4.9375 C-1 8 -1 8 -3 11 C-3.66 11 -4.32 11 -5 11 C-3.77472971 6.94718288 -2.30119506 3.55639236 0 0 Z " fill="#0D1D3B" transform="translate(153,649)"/>
<path d="M0 0 C0.66 0.33 1.32 0.66 2 1 C1.40844669 2.31823302 0.80128537 3.62947051 0.1875 4.9375 C-0.31716797 6.03384766 -0.31716797 6.03384766 -0.83203125 7.15234375 C-2 9 -2 9 -5 10 C-3.84414715 6.08788267 -2.64465038 3.1254959 0 0 Z " fill="#030812" transform="translate(311,543)"/>
<path d="M0 0 C1.2380014 3.57644848 0.74926071 6.33694766 0 10 C-1.32 10 -2.64 10 -4 10 C-2.8905928 6.51329166 -1.73662334 3.22515763 0 0 Z " fill="#102348" transform="translate(274,431)"/>
<path d="M0 0 C-2.55068845 2.35448165 -3.71017358 2.98327924 -7.25 3.1875 C-8.1575 3.125625 -9.065 3.06375 -10 3 C-10 2.34 -10 1.68 -10 1 C-6.61981469 -0.04005702 -3.5219721 -0.08004482 0 0 Z " fill="#152D5A" transform="translate(99,788)"/>
<path d="M0 0 C0.33 0.66 0.66 1.32 1 2 C0.00390625 3.9453125 0.00390625 3.9453125 -1.4375 6.125 C-1.91058594 6.84945313 -2.38367188 7.57390625 -2.87109375 8.3203125 C-3.24363281 8.87460937 -3.61617188 9.42890625 -4 10 C-4.65234375 8.203125 -4.65234375 8.203125 -5 6 C-3.63510623 3.66629928 -1.8580962 1.99405446 0 0 Z " fill="#040A15" transform="translate(375,428)"/>
<path d="M0 0 C0.6875 1.6875 0.6875 1.6875 1 4 C-0.3125 6.75 -0.3125 6.75 -2 9 C-2.66 9 -3.32 9 -4 9 C-2.94124926 5.59687262 -1.99097846 2.98646769 0 0 Z " fill="#0C1A36" transform="translate(133,685)"/>
<path d="" fill="#000002" transform="translate(0,0)"/>
<path d="" fill="#000002" transform="translate(0,0)"/>
<path d="" fill="#1A3870" transform="translate(0,0)"/>
<path d="" fill="#0D1C39" transform="translate(0,0)"/>
</svg>
